<svg width="90" height="80" viewBox="0 0 90 80" fill="none" xmlns="http://www.w3.org/2000/svg">
<path d="M3.01596 -5.96292e-05C1.35906 -5.96292e-05 0.0159607 1.34309 0.0159607 2.99994C0.0159607 4.65679 1.35906 5.99994 3.01596 5.99994H12.5785L22.891 54.6562C23.299 56.4878 24.4994 58.0122 26.016 58H76.016C77.6009 58.022 79.0587 56.5851 79.0587 55C79.0587 53.4149 77.6009 51.9776 76.016 52H28.4535L27.1722 45.9999H80.016C81.3592 45.9899 82.6283 44.9669 82.9222 43.6562L89.9222 13.6562C90.3123 11.9151 88.8002 10.0127 87.016 9.99994H19.5785L17.9535 2.37494C17.6696 1.04284 16.378 -0.00145963 15.016 -5.96292e-05H3.01596ZM20.8285 15.9999H83.2348L77.641 39.9999H25.9222L20.8285 15.9999ZM36.016 60C30.5287 60 26.016 64.5126 26.016 70C26.016 75.4873 30.5287 80 36.016 80C41.5033 80 46.016 75.4873 46.016 70C46.016 64.5127 41.5033 60 36.016 60ZM66.016 60C60.5287 60 56.016 64.5126 56.016 70C56.016 75.4873 60.5287 80 66.016 80C71.5033 80 76.016 75.4873 76.016 70C76.016 64.5127 71.5033 60 66.016 60ZM36.016 66C38.2607 66 40.016 67.7553 40.016 70C40.016 72.2447 38.2607 74 36.016 74C33.7715 74 32.016 72.2446 32.016 70C32.016 67.7554 33.7715 66 36.016 66ZM66.016 66C68.2607 66 70.016 67.7553 70.016 70C70.016 72.2447 68.2607 74 66.016 74C63.7715 74 62.016 72.2446 62.016 70C62.016 67.7554 63.7715 66 66.016 66Z" fill="black"/>
</svg>
